<svg width="61" height="62" xmlns="http://www.w3.org/2000/svg" xmlns:xlink="http://www.w3.org/1999/xlink" xmlns:svgjs="http://svgjs.com/svgjs" viewBox="0 0.5 61 61" fill="#ff6363"><svg xmlns="http://www.w3.org/2000/svg" width="61" height="62" viewBox="1.047 1.547 59.906 59.906"><path paint-order="stroke fill markers" fill-rule="evenodd" d="M31 1.547c4.124 0 8.016.773 11.672 2.32 3.656 1.547 6.842 3.68 9.562 6.398 2.718 2.72 4.852 5.907 6.399 9.563 1.547 3.656 2.32 7.548 2.32 11.672 0 4.126-.773 8.015-2.32 11.672-1.547 3.656-3.68 6.844-6.399 9.562-2.72 2.72-5.906 4.852-9.562 6.399-3.656 1.546-7.548 2.32-11.672 2.32-4.127 0-8.016-.774-11.672-2.32-3.656-1.547-6.844-3.679-9.562-6.399-2.72-2.718-4.852-5.906-6.399-9.562-1.547-3.657-2.32-7.546-2.32-11.672 0-4.124.773-8.016 2.32-11.672 1.547-3.656 3.678-6.842 6.399-9.563 2.718-2.717 5.906-4.851 9.562-6.398C22.984 2.32 26.873 1.547 31 1.547zm0 57.515c3.843 0 7.429-.725 10.758-2.18 3.326-1.452 6.258-3.396 8.789-5.835 2.437-2.531 4.381-5.46 5.836-8.79 1.452-3.326 2.18-6.912 2.18-10.757 0-3.843-.728-7.43-2.18-10.758-1.455-3.327-3.4-6.258-5.836-8.79-2.531-2.436-5.463-4.38-8.79-5.835C38.43 4.665 34.844 3.937 31 3.937c-3.845 0-7.431.728-10.758 2.18-3.329 1.455-6.258 3.4-8.789 5.836-2.439 2.531-4.383 5.462-5.836 8.789-1.454 3.329-2.18 6.915-2.18 10.758 0 3.845.726 7.43 2.18 10.758 1.453 3.329 3.397 6.258 5.836 8.789 2.531 2.439 5.46 4.383 8.79 5.836 3.326 1.454 6.912 2.18 10.757 2.18zm15.047-38.25c.281-.373.679-.562 1.195-.562.514 0 .96.189 1.336.562.281.376.422.822.422 1.336 0 .517-.19.914-.563 1.196l-20.53 19.968c-.095.19-.26.306-.493.352-.235.048-.446.07-.633.07a3.83 3.83 0 0 1-.773-.07c-.235-.046-.4-.163-.492-.352L17.5 35.297a1.818 1.818 0 0 1-.563-1.336c0-.514.187-.914.563-1.196.281-.373.679-.562 1.195-.562.514 0 .96.189 1.336.562l6.75 6.75 19.266-18.703z"/></svg></svg>